RobotoAvar2-XTLC244.ufo
<glyph name="L" format="2">
  <advance width="1106"/>
  <unicode hex="004C"/>
  <anchor x="630" y="0" name="bottom"/>
  <anchor x="860" y="728" name="center"/>
  <anchor x="384" y="1456" name="top"/>
  <anchor x="749" y="1052" name="topright"/>
  <anchor x="304" y="728" name="slash"/>
  <outline>
    <contour>
      <point x="170" y="0" type="line"/>
      <point x="170" y="1456" type="line"/>
      <point x="362" y="1456" type="line"/>
      <point x="362" y="158" type="line"/>
      <point x="1052" y="158" type="line"/>
      <point x="1052" y="0" type="line"/>
    </contour>
  </outline>
</glyph>
<glyph name="s" format="2">
  <advance width="560"/>
  <unicode hex="0073"/>
  <anchor x="280" y="0" name="bottom"/>
  <anchor x="280" y="1052" name="top"/>
  <outline>
    <contour>
      <point x="81" y="310" type="line"/>
      <point x="266" y="310" type="line"/>
      <point x="266" y="305" type="line" smooth="yes"/>
      <point x="266" y="214"/>
      <point x="275" y="122"/>
      <point x="285" y="122" type="qcurve" smooth="yes"/>
      <point x="295" y="122"/>
      <point x="296" y="210"/>
      <point x="296" y="280" type="qcurve" smooth="yes"/>
      <point x="296" y="350"/>
      <point x="283" y="425"/>
      <point x="250" y="465" type="qcurve" smooth="yes"/>
      <point x="217" y="505"/>
      <point x="81" y="650"/>
      <point x="81" y="780" type="qcurve" smooth="yes"/>
      <point x="81" y="910"/>
      <point x="172" y="1082"/>
      <point x="280" y="1082" type="qcurve" smooth="yes"/>
      <point x="390" y="1082"/>
      <point x="479" y="910"/>
      <point x="479" y="765" type="qcurve" smooth="yes"/>
      <point x="479" y="760" type="line"/>
      <point x="295" y="760" type="line"/>
      <point x="295" y="769" type="line" smooth="yes"/>
      <point x="295" y="844"/>
      <point x="290" y="930"/>
      <point x="280" y="930" type="qcurve" smooth="yes"/>
      <point x="270" y="930"/>
      <point x="265" y="850"/>
      <point x="265" y="790" type="qcurve" smooth="yes"/>
      <point x="265" y="730"/>
      <point x="309" y="663"/>
      <point x="350" y="620" type="qcurve" smooth="yes"/>
      <point x="388" y="580"/>
      <point x="479" y="430"/>
      <point x="479" y="290" type="qcurve" smooth="yes"/>
      <point x="479" y="150"/>
      <point x="395" y="-30"/>
      <point x="285" y="-30" type="qcurve" smooth="yes"/>
      <point x="174" y="-30"/>
      <point x="81" y="153"/>
      <point x="81" y="305" type="qcurve" smooth="yes"/>
    </contour>
  </outline>
</glyph>
<glyph name="v" format="2">
  <advance width="428"/>
  <unicode hex="0076"/>
  <anchor x="214" y="0" name="bottom"/>
  <anchor x="214" y="1052" name="top"/>
  <outline>
    <contour>
      <point x="0" y="1052" type="line"/>
      <point x="189" y="1052" type="line"/>
      <point x="211" y="380" type="line" smooth="yes"/>
      <point x="212" y="338"/>
      <point x="214" y="300"/>
      <point x="214" y="280" type="qcurve"/>
      <point x="220" y="280" type="line"/>
      <point x="220" y="300"/>
      <point x="221" y="338"/>
      <point x="222" y="380" type="qcurve" smooth="yes"/>
      <point x="240" y="1052" type="line"/>
      <point x="428" y="1052" type="line"/>
      <point x="285" y="0" type="line"/>
      <point x="143" y="0" type="line"/>
    </contour>
  </outline>
</glyph>
<glyph name="y" format="2">
  <advance width="397"/>
  <unicode hex="0079"/>
  <anchor x="385" y="0" name="bottom"/>
  <anchor x="217" y="1052" name="top"/>
  <outline>
    <contour>
      <point x="-1" y="-416" type="qcurve"/>
      <point x="-1" y="-258" type="line"/>
      <point x="8" y="-266"/>
      <point x="31" y="-276"/>
      <point x="41" y="-276" type="qcurve" smooth="yes"/>
      <point x="66" y="-276"/>
      <point x="102" y="-171"/>
      <point x="123" y="4" type="qcurve"/>
      <point x="123" y="4" type="line"/>
      <point x="10" y="1052" type="line"/>
      <point x="190" y="1052" type="line"/>
      <point x="199" y="420" type="line" smooth="yes"/>
      <point x="200" y="380"/>
      <point x="201" y="310"/>
      <point x="201" y="280" type="qcurve"/>
      <point x="208" y="280" type="line"/>
      <point x="208" y="310"/>
      <point x="209" y="380"/>
      <point x="210" y="420" type="qcurve" smooth="yes"/>
      <point x="221" y="1052" type="line"/>
      <point x="397" y="1052" type="line"/>
      <point x="259" y="-144" type="line" smooth="yes"/>
      <point x="243" y="-280"/>
      <point x="140" y="-436"/>
      <point x="69" y="-436" type="qcurve" smooth="yes"/>
      <point x="42" y="-436"/>
      <point x="13" y="-426"/>
    </contour>
  </outline>
</glyph>
<glyph name="eth" format="2">
  <advance width="572"/>
  <unicode hex="00F0"/>
  <outline>
    <contour>
      <point x="156" y="1421" type="qcurve"/>
      <point x="213" y="1581" type="line"/>
      <point x="359" y="1545"/>
      <point x="487" y="1008"/>
      <point x="487" y="633" type="qcurve"/>
      <point x="487" y="535" type="line"/>
      <point x="487" y="289"/>
      <point x="394" y="-20"/>
      <point x="282" y="-20" type="qcurve" smooth="yes"/>
      <point x="162" y="-20"/>
      <point x="85" y="265"/>
      <point x="85" y="468" type="qcurve" smooth="yes"/>
      <point x="85" y="698"/>
      <point x="139" y="978"/>
      <point x="242" y="978" type="qcurve" smooth="yes"/>
      <point x="321" y="978"/>
      <point x="391" y="749"/>
      <point x="391" y="614" type="qcurve"/>
      <point x="322" y="614" type="line"/>
      <point x="322" y="680"/>
      <point x="302" y="826"/>
      <point x="286" y="826" type="qcurve" smooth="yes"/>
      <point x="276" y="826"/>
      <point x="271" y="632"/>
      <point x="271" y="468" type="qcurve" smooth="yes"/>
      <point x="271" y="345"/>
      <point x="276" y="132"/>
      <point x="286" y="132" type="qcurve" smooth="yes"/>
      <point x="296" y="132"/>
      <point x="301" y="363"/>
      <point x="301" y="535" type="qcurve" smooth="yes"/>
      <point x="301" y="635" type="line" smooth="yes"/>
      <point x="301" y="984"/>
      <point x="219" y="1403"/>
    </contour>
    <contour>
      <point x="578" y="1326" type="line"/>
      <point x="241" y="1061" type="line"/>
      <point x="158" y="1181" type="line"/>
      <point x="495" y="1445" type="line"/>
    </contour>
  </outline>
</glyph>
<glyph name="kgreenlandic" format="2">
  <advance width="588"/>
  <unicode hex="0138"/>
  <outline>
    <contour>
      <point x="340" y="1052" type="line"/>
      <point x="340" y="0" type="line"/>
      <point x="155" y="0" type="line"/>
      <point x="155" y="1052" type="line"/>
    </contour>
    <contour>
      <point x="594" y="1052" type="line"/>
      <point x="440" y="462" type="line"/>
      <point x="250" y="462" type="line"/>
      <point x="250" y="624" type="line"/>
      <point x="355" y="624" type="line"/>
      <point x="390" y="1052" type="line"/>
    </contour>
    <contour>
      <point x="400" y="0" type="line"/>
      <point x="355" y="490" type="line"/>
      <point x="465" y="624" type="line"/>
      <point x="604" y="0" type="line"/>
    </contour>
  </outline>
</glyph>
<glyph name="schwa" format="2">
  <advance width="572"/>
  <unicode hex="0259"/>
  <outline>
    <contour>
      <point x="487" y="542" type="qcurve" smooth="yes"/>
      <point x="487" y="510" type="line" smooth="yes"/>
      <point x="487" y="272"/>
      <point x="409" y="-30"/>
      <point x="283" y="-30" type="qcurve" smooth="yes"/>
      <point x="162" y="-30"/>
      <point x="80" y="252"/>
      <point x="80" y="492" type="qcurve" smooth="yes"/>
      <point x="80" y="568" type="line"/>
      <point x="392" y="568" type="line"/>
      <point x="392" y="420" type="line"/>
      <point x="267" y="420" type="line"/>
      <point x="267" y="396" type="line" smooth="yes"/>
      <point x="267" y="282"/>
      <point x="273" y="122"/>
      <point x="283" y="122" type="qcurve" smooth="yes"/>
      <point x="295" y="122"/>
      <point x="297" y="347"/>
      <point x="297" y="510" type="qcurve" smooth="yes"/>
      <point x="297" y="542" type="line" smooth="yes"/>
      <point x="297" y="760"/>
      <point x="291" y="930"/>
      <point x="283" y="930" type="qcurve" smooth="yes"/>
      <point x="275" y="930"/>
      <point x="270" y="842"/>
      <point x="270" y="782" type="qcurve"/>
      <point x="108" y="877" type="line"/>
      <point x="118" y="952"/>
      <point x="202" y="1082"/>
      <point x="282" y="1082" type="qcurve" smooth="yes"/>
      <point x="409" y="1082"/>
      <point x="487" y="780"/>
    </contour>
  </outline>
</glyph>
<glyph name="acutecomb" format="2">
  <unicode hex="0301"/>
  <anchor x="0" y="1052" name="_top"/>
  <anchor x="0" y="1602" name="top"/>
  <outline>
    <contour>
      <point x="-57" y="1264" type="line"/>
      <point x="17" y="1577" type="line"/>
      <point x="171" y="1490" type="line"/>
      <point x="38" y="1217" type="line"/>
    </contour>
  </outline>
</glyph>
<glyph name="dotaccentcomb" format="2">
  <unicode hex="0307"/>
  <anchor x="0" y="1052" name="_top"/>
  <anchor x="0" y="1458" name="top"/>
  <outline>
    <contour>
      <point x="-105" y="1359" type="qcurve" smooth="yes"/>
      <point x="-105" y="1402"/>
      <point x="-52" y="1458"/>
      <point x="0" y="1458" type="qcurve" smooth="yes"/>
      <point x="49" y="1458"/>
      <point x="103" y="1402"/>
      <point x="103" y="1359" type="qcurve" smooth="yes"/>
      <point x="103" y="1317"/>
      <point x="49" y="1260"/>
      <point x="0" y="1260" type="qcurve" smooth="yes"/>
      <point x="-52" y="1260"/>
      <point x="-105" y="1317"/>
    </contour>
  </outline>
</glyph>
<glyph name="dieresiscomb" format="2">
  <unicode hex="0308"/>
  <anchor x="0" y="1052" name="_GRK_top"/>
  <anchor x="0" y="1052" name="_top"/>
  <anchor x="0" y="1431" name="top"/>
  <outline>
    <contour>
      <point x="-197" y="1343" type="qcurve" smooth="yes"/>
      <point x="-197" y="1377"/>
      <point x="-152" y="1426"/>
      <point x="-109" y="1426" type="qcurve" smooth="yes"/>
      <point x="-66" y="1426"/>
      <point x="-20" y="1377"/>
      <point x="-20" y="1343" type="qcurve" smooth="yes"/>
      <point x="-20" y="1307"/>
      <point x="-66" y="1258"/>
      <point x="-109" y="1258" type="qcurve" smooth="yes"/>
      <point x="-152" y="1258"/>
      <point x="-197" y="1307"/>
    </contour>
    <contour>
      <point x="19" y="1343" type="qcurve" smooth="yes"/>
      <point x="19" y="1377"/>
      <point x="64" y="1426"/>
      <point x="107" y="1426" type="qcurve" smooth="yes"/>
      <point x="150" y="1426"/>
      <point x="196" y="1377"/>
      <point x="196" y="1343" type="qcurve" smooth="yes"/>
      <point x="196" y="1307"/>
      <point x="150" y="1258"/>
      <point x="107" y="1258" type="qcurve" smooth="yes"/>
      <point x="64" y="1258"/>
      <point x="19" y="1307"/>
    </contour>
  </outline>
</glyph>
<glyph name="ringcomb" format="2">
  <unicode hex="030A"/>
  <anchor x="0" y="1052" name="_top"/>
  <anchor x="0" y="1613" name="top"/>
  <outline>
    <contour>
      <point x="-179" y="1429" type="qcurve"/>
      <point x="-179" y="1501"/>
      <point x="-76" y="1602"/>
      <point x="0" y="1602" type="qcurve" smooth="yes"/>
      <point x="74" y="1602"/>
      <point x="179" y="1501"/>
      <point x="179" y="1429" type="qcurve" smooth="yes"/>
      <point x="179" y="1357"/>
      <point x="74" y="1260"/>
      <point x="0" y="1260" type="qcurve" smooth="yes"/>
      <point x="-76" y="1260"/>
      <point x="-179" y="1357"/>
    </contour>
    <contour>
      <point x="-92" y="1429" type="qcurve"/>
      <point x="-92" y="1395"/>
      <point x="-40" y="1338"/>
      <point x="0" y="1338" type="qcurve" smooth="yes"/>
      <point x="40" y="1338"/>
      <point x="92" y="1393"/>
      <point x="92" y="1429" type="qcurve" smooth="yes"/>
      <point x="92" y="1466"/>
      <point x="40" y="1523"/>
      <point x="0" y="1523" type="qcurve" smooth="yes"/>
      <point x="-40" y="1523"/>
      <point x="-92" y="1466"/>
    </contour>
  </outline>
</glyph>
<glyph name="hungarumlautcomb" format="2">
  <unicode hex="030B"/>
  <anchor x="0" y="1052" name="_top"/>
  <anchor x="0" y="1581" name="top"/>
  <outline>
    <contour>
      <point x="-163" y="1277" type="line"/>
      <point x="-87" y="1581" type="line"/>
      <point x="50" y="1495" type="line"/>
      <point x="-72" y="1215" type="line"/>
    </contour>
    <contour>
      <point x="1" y="1277" type="line"/>
      <point x="77" y="1581" type="line"/>
      <point x="214" y="1495" type="line"/>
      <point x="92" y="1215" type="line"/>
    </contour>
  </outline>
</glyph>
<glyph name="breveinvertedcomb" format="2">
  <unicode hex="030F"/>
  <anchor x="0" y="1052" name="_top"/>
  <anchor x="0" y="1540" name="top"/>
  <outline>
    <contour>
      <point x="-15" y="1220" type="qcurve"/>
      <point x="-115" y="1272" type="line"/>
      <point x="-107" y="1386"/>
      <point x="-47" y="1540"/>
      <point x="0" y="1540" type="qcurve"/>
      <point x="47" y="1540"/>
      <point x="107" y="1386"/>
      <point x="115" y="1272" type="qcurve"/>
      <point x="15" y="1220" type="line"/>
      <point x="14" y="1277"/>
      <point x="11" y="1376"/>
      <point x="0" y="1376" type="qcurve"/>
      <point x="-11" y="1376"/>
      <point x="-14" y="1277"/>
    </contour>
  </outline>
</glyph>
<glyph name="dotbelowcomb" format="2">
  <unicode hex="0323"/>
  <anchor x="0" y="0" name="_bottom"/>
  <anchor x="0" y="-407" name="bottom"/>
  <outline>
    <contour>
      <point x="-117" y="-296" type="qcurve" smooth="yes"/>
      <point x="-117" y="-248"/>
      <point x="-57" y="-185"/>
      <point x="0" y="-185" type="qcurve" smooth="yes"/>
      <point x="57" y="-185"/>
      <point x="117" y="-248"/>
      <point x="117" y="-296" type="qcurve" smooth="yes"/>
      <point x="117" y="-343"/>
      <point x="57" y="-407"/>
      <point x="0" y="-407" type="qcurve" smooth="yes"/>
      <point x="-57" y="-407"/>
      <point x="-117" y="-343"/>
    </contour>
  </outline>
</glyph>
<glyph name="dieresisbelowcomb" format="2">
  <unicode hex="0324"/>
  <anchor x="0" y="0" name="_bottom"/>
  <anchor x="0" y="-421" name="bottom"/>
  <outline>
    <contour>
      <point x="-197" y="-277" type="qcurve" smooth="yes"/>
      <point x="-197" y="-243"/>
      <point x="-152" y="-194"/>
      <point x="-109" y="-194" type="qcurve" smooth="yes"/>
      <point x="-66" y="-194"/>
      <point x="-20" y="-243"/>
      <point x="-20" y="-277" type="qcurve" smooth="yes"/>
      <point x="-20" y="-313"/>
      <point x="-66" y="-362"/>
      <point x="-109" y="-362" type="qcurve" smooth="yes"/>
      <point x="-152" y="-362"/>
      <point x="-197" y="-313"/>
    </contour>
    <contour>
      <point x="19" y="-277" type="qcurve" smooth="yes"/>
      <point x="19" y="-243"/>
      <point x="64" y="-194"/>
      <point x="107" y="-194" type="qcurve" smooth="yes"/>
      <point x="150" y="-194"/>
      <point x="196" y="-243"/>
      <point x="196" y="-277" type="qcurve" smooth="yes"/>
      <point x="196" y="-313"/>
      <point x="150" y="-362"/>
      <point x="107" y="-362" type="qcurve" smooth="yes"/>
      <point x="64" y="-362"/>
      <point x="19" y="-313"/>
    </contour>
  </outline>
</glyph>
<glyph name="delta" format="2">
  <advance width="578"/>
  <unicode hex="03B4"/>
  <outline>
    <contour>
      <point x="289" y="-30" type="qcurve" smooth="yes"/>
      <point x="193" y="-30"/>
      <point x="85" y="231"/>
      <point x="85" y="439" type="qcurve" smooth="yes"/>
      <point x="85" y="469" type="line" smooth="yes"/>
      <point x="85" y="679"/>
      <point x="189" y="931"/>
      <point x="241" y="954" type="qcurve"/>
      <point x="384" y="880" type="line"/>
      <point x="337" y="870"/>
      <point x="274" y="674"/>
      <point x="274" y="492" type="qcurve" smooth="yes"/>
      <point x="274" y="472" type="line" smooth="yes"/>
      <point x="274" y="310"/>
      <point x="279" y="122"/>
      <point x="289" y="122" type="qcurve" smooth="yes"/>
      <point x="299" y="122"/>
      <point x="304" y="318"/>
      <point x="304" y="482" type="qcurve" smooth="yes"/>
      <point x="304" y="501" type="line" smooth="yes"/>
      <point x="304" y="619"/>
      <point x="304" y="822"/>
      <point x="262" y="850" type="qcurve" smooth="yes"/>
      <point x="178" y="914"/>
      <point x="105" y="1062"/>
      <point x="105" y="1166" type="qcurve" smooth="yes"/>
      <point x="105" y="1305"/>
      <point x="244" y="1476"/>
      <point x="340" y="1476" type="qcurve" smooth="yes"/>
      <point x="361" y="1476"/>
      <point x="420" y="1438"/>
      <point x="427" y="1407" type="qcurve"/>
      <point x="396" y="1253" type="line"/>
      <point x="373" y="1294"/>
      <point x="350" y="1324"/>
      <point x="340" y="1324" type="qcurve" smooth="yes"/>
      <point x="319" y="1324"/>
      <point x="289" y="1234"/>
      <point x="289" y="1171" type="qcurve" smooth="yes"/>
      <point x="289" y="1116"/>
      <point x="292" y="1027"/>
      <point x="349" y="979" type="qcurve"/>
      <point x="461" y="886"/>
      <point x="493" y="644"/>
      <point x="493" y="495" type="qcurve" smooth="yes"/>
      <point x="493" y="466" type="line" smooth="yes"/>
      <point x="493" y="229"/>
      <point x="377" y="-30"/>
    </contour>
  </outline>
</glyph>
<glyph name="zeta" format="2">
  <advance width="442"/>
  <unicode hex="03B6"/>
  <guideline x="809" y="291" angle="90.0" identifier="Hhem4nGbLg"/>
  <guideline x="856" y="823" angle="90.0" identifier="UwRnHAo0ZQ"/>
  <outline>
    <contour>
      <point x="289" y="-348" type="line"/>
      <point x="297" y="-295"/>
      <point x="304" y="-195"/>
      <point x="304" y="-143" type="qcurve" smooth="yes"/>
      <point x="304" y="-84"/>
      <point x="293" y="4"/>
      <point x="271" y="10" type="qcurve" smooth="yes"/>
      <point x="256" y="14" type="line" smooth="yes"/>
      <point x="157" y="40"/>
      <point x="65" y="226"/>
      <point x="65" y="365" type="qcurve"/>
      <point x="65" y="463"/>
      <point x="139" y="796"/>
      <point x="194" y="968" type="qcurve" smooth="yes"/>
      <point x="310" y="1328" type="line"/>
      <point x="316" y="1304" type="line"/>
      <point x="131" y="1304" type="line"/>
      <point x="131" y="1456" type="line"/>
      <point x="482" y="1456" type="line"/>
      <point x="482" y="1299" type="line"/>
      <point x="379" y="886" type="line" smooth="yes"/>
      <point x="370" y="851"/>
      <point x="255" y="475"/>
      <point x="255" y="388" type="qcurve" smooth="yes"/>
      <point x="255" y="311"/>
      <point x="265" y="192"/>
      <point x="319" y="175" type="qcurve" smooth="yes"/>
      <point x="332" y="171" type="line" smooth="yes"/>
      <point x="423" y="143"/>
      <point x="482" y="6"/>
      <point x="482" y="-84" type="qcurve" smooth="yes"/>
      <point x="482" y="-147"/>
      <point x="474" y="-278"/>
      <point x="459" y="-348" type="qcurve"/>
    </contour>
  </outline>
</glyph>
<glyph name="iota" format="2">
  <advance width="413"/>
  <unicode hex="03B9"/>
  <anchor x="235" y="1052" name="top"/>
  <outline>
    <contour>
      <point x="294" y="-30" type="qcurve" smooth="yes"/>
      <point x="237" y="-30"/>
      <point x="138" y="110"/>
      <point x="138" y="260" type="qcurve" smooth="yes"/>
      <point x="138" y="1052" type="line"/>
      <point x="324" y="1052" type="line"/>
      <point x="324" y="260" type="line" smooth="yes"/>
      <point x="324" y="190"/>
      <point x="330" y="130"/>
      <point x="344" y="130" type="qcurve" smooth="yes"/>
      <point x="350" y="130"/>
      <point x="360" y="142"/>
      <point x="363" y="152" type="qcurve"/>
      <point x="363" y="0" type="line"/>
      <point x="362" y="-12"/>
      <point x="331" y="-30"/>
    </contour>
  </outline>
</glyph>
<glyph name="kappa" format="2">
  <advance width="618"/>
  <unicode hex="03BA"/>
  <outline>
    <contour>
      <point x="409" y="0" type="line"/>
      <point x="339" y="477" type="line"/>
      <point x="454" y="603" type="line"/>
      <point x="633" y="0" type="line"/>
    </contour>
    <contour>
      <point x="241" y="610" type="line"/>
      <point x="340" y="610" type="line"/>
      <point x="409" y="1052" type="line"/>
      <point x="633" y="1052" type="line"/>
      <point x="440" y="465" type="line"/>
      <point x="241" y="465" type="line"/>
    </contour>
    <contour>
      <point x="334" y="1052" type="line"/>
      <point x="334" y="0" type="line"/>
      <point x="148" y="0" type="line"/>
      <point x="148" y="1052" type="line"/>
    </contour>
  </outline>
</glyph>
<glyph name="lambda" format="2">
  <advance width="430"/>
  <unicode hex="03BB"/>
  <outline>
    <contour>
      <point x="0" y="0" type="line"/>
      <point x="130" y="1048" type="line"/>
      <point x="120" y="1110" type="line" smooth="yes"/>
      <point x="92" y="1286"/>
      <point x="66" y="1396"/>
      <point x="49" y="1396" type="qcurve" smooth="yes"/>
      <point x="43" y="1396"/>
      <point x="33" y="1389"/>
      <point x="29" y="1381" type="qcurve"/>
      <point x="29" y="1536" type="line"/>
      <point x="38" y="1546"/>
      <point x="63" y="1556"/>
      <point x="78" y="1556" type="qcurve" smooth="yes"/>
      <point x="140" y="1556"/>
      <point x="202" y="1422"/>
      <point x="229" y="1252" type="qcurve" smooth="yes"/>
      <point x="430" y="0" type="line"/>
      <point x="230" y="0" type="line"/>
      <point x="221" y="637" type="line" smooth="yes"/>
      <point x="220" y="697"/>
      <point x="219" y="757"/>
      <point x="218" y="808" type="qcurve"/>
      <point x="212" y="808" type="line"/>
      <point x="210" y="759"/>
      <point x="209" y="682"/>
      <point x="208" y="637" type="qcurve" smooth="yes"/>
      <point x="200" y="0" type="line"/>
    </contour>
  </outline>
</glyph>
<glyph name="xi" format="2">
  <advance width="541"/>
  <unicode hex="03BE"/>
  <outline>
    <contour>
      <point x="309" y="-348" type="line"/>
      <point x="317" y="-295"/>
      <point x="324" y="-195"/>
      <point x="324" y="-143" type="qcurve" smooth="yes"/>
      <point x="324" y="-84"/>
      <point x="310" y="6"/>
      <point x="290" y="10" type="qcurve" smooth="yes"/>
      <point x="275" y="13" type="line" smooth="yes"/>
      <point x="174" y="33"/>
      <point x="85" y="255"/>
      <point x="85" y="398" type="qcurve" smooth="yes"/>
      <point x="85" y="517"/>
      <point x="110" y="725"/>
      <point x="188" y="767" type="qcurve"/>
      <point x="188" y="743" type="line"/>
      <point x="144" y="783"/>
      <point x="106" y="905"/>
      <point x="106" y="1018" type="qcurve" smooth="yes"/>
      <point x="106" y="1147"/>
      <point x="139" y="1280"/>
      <point x="175" y="1313" type="qcurve"/>
      <point x="175" y="1304" type="line"/>
      <point x="131" y="1304" type="line"/>
      <point x="131" y="1456" type="line"/>
      <point x="437" y="1456" type="line"/>
      <point x="437" y="1304" type="line"/>
      <point x="356" y="1285"/>
      <point x="285" y="1160"/>
      <point x="285" y="1042" type="qcurve" smooth="yes"/>
      <point x="285" y="935"/>
      <point x="303" y="846"/>
      <point x="321" y="846" type="qcurve" smooth="yes"/>
      <point x="340" y="846" type="line"/>
      <point x="340" y="694" type="line"/>
      <point x="321" y="694" type="line" smooth="yes"/>
      <point x="296" y="694"/>
      <point x="275" y="538"/>
      <point x="275" y="411" type="qcurve" smooth="yes"/>
      <point x="275" y="298"/>
      <point x="293" y="189"/>
      <point x="340" y="177" type="qcurve" smooth="yes"/>
      <point x="363" y="171" type="line" smooth="yes"/>
      <point x="453" y="147"/>
      <point x="502" y="6"/>
      <point x="502" y="-84" type="qcurve" smooth="yes"/>
      <point x="502" y="-147"/>
      <point x="494" y="-278"/>
      <point x="479" y="-348" type="qcurve"/>
    </contour>
  </outline>
</glyph>
<glyph name="tau" format="2">
  <advance width="305"/>
  <unicode hex="03C4"/>
  <outline>
    <contour>
      <point x="0" y="900" type="line"/>
      <point x="0" y="1052" type="line"/>
      <point x="246" y="1052" type="line"/>
      <point x="246" y="900" type="line"/>
    </contour>
    <contour>
      <point x="186" y="-30" type="qcurve" smooth="yes"/>
      <point x="113" y="-30"/>
      <point x="30" y="110"/>
      <point x="30" y="260" type="qcurve" smooth="yes"/>
      <point x="30" y="971" type="line"/>
      <point x="216" y="971" type="line"/>
      <point x="216" y="260" type="line" smooth="yes"/>
      <point x="216" y="190"/>
      <point x="222" y="130"/>
      <point x="236" y="130" type="qcurve" smooth="yes"/>
      <point x="242" y="130"/>
      <point x="252" y="142"/>
      <point x="255" y="152" type="qcurve"/>
      <point x="255" y="0" type="line"/>
      <point x="253" y="-12"/>
      <point x="213" y="-30"/>
    </contour>
  </outline>
</glyph>
<glyph name="psi" format="2">
  <advance width="894"/>
  <unicode hex="03C8"/>
  <outline>
    <contour>
      <point x="354" y="-416" type="line"/>
      <point x="354" y="1456" type="line"/>
      <point x="540" y="1456" type="line"/>
      <point x="540" y="-416" type="line"/>
    </contour>
    <contour>
      <point x="354" y="-20" type="line"/>
      <point x="255" y="-10"/>
      <point x="138" y="237"/>
      <point x="138" y="480" type="qcurve" smooth="yes"/>
      <point x="138" y="1052" type="line"/>
      <point x="324" y="1052" type="line"/>
      <point x="324" y="490" type="line" smooth="yes"/>
      <point x="324" y="322"/>
      <point x="329" y="146"/>
      <point x="354" y="136" type="qcurve"/>
      <point x="540" y="136" type="line"/>
      <point x="568" y="146"/>
      <point x="570" y="322"/>
      <point x="570" y="490" type="qcurve" smooth="yes"/>
      <point x="570" y="1052" type="line"/>
      <point x="756" y="1052" type="line"/>
      <point x="756" y="480" type="line" smooth="yes"/>
      <point x="756" y="237"/>
      <point x="642" y="-10"/>
      <point x="540" y="-20" type="qcurve"/>
    </contour>
  </outline>
</glyph>
<glyph name="kaisymbol" format="2">
  <advance width="607"/>
  <unicode hex="03D7"/>
  <outline>
    <contour>
      <point x="157" y="0" type="line"/>
      <point x="157" y="1052" type="line"/>
      <point x="343" y="1052" type="line"/>
      <point x="343" y="0" type="line"/>
    </contour>
    <contour>
      <point x="263" y="465" type="line"/>
      <point x="263" y="610" type="line"/>
      <point x="357" y="610" type="line"/>
      <point x="373" y="1052" type="line"/>
      <point x="590" y="1052" type="line"/>
      <point x="516" y="545" type="line"/>
      <point x="612" y="13" type="line"/>
      <point x="268" y="-590" type="line"/>
      <point x="148" y="-454" type="line"/>
      <point x="373" y="28" type="line"/>
      <point x="358" y="465" type="line"/>
    </contour>
  </outline>
</glyph>
<glyph name="be" format="2">
  <advance width="590"/>
  <unicode hex="0431"/>
  <outline>
    <contour>
      <point x="285" y="522" type="qcurve" smooth="yes"/>
      <point x="285" y="490" type="line" smooth="yes"/>
      <point x="285" y="335"/>
      <point x="288" y="122"/>
      <point x="298" y="122" type="qcurve" smooth="yes"/>
      <point x="312" y="122"/>
      <point x="315" y="335"/>
      <point x="315" y="490" type="qcurve" smooth="yes"/>
      <point x="315" y="522" type="line" smooth="yes"/>
      <point x="315" y="677"/>
      <point x="311" y="890"/>
      <point x="300" y="890" type="qcurve" smooth="yes"/>
      <point x="288" y="890"/>
      <point x="285" y="677"/>
    </contour>
    <contour>
      <point x="349" y="1042" type="qcurve" smooth="yes"/>
      <point x="416" y="1042"/>
      <point x="505" y="745"/>
      <point x="505" y="522" type="qcurve" smooth="yes"/>
      <point x="505" y="490" type="line" smooth="yes"/>
      <point x="505" y="261"/>
      <point x="383" y="-30"/>
      <point x="300" y="-30" type="qcurve"/>
      <point x="208" y="-30"/>
      <point x="95" y="263"/>
      <point x="95" y="605" type="qcurve" smooth="yes"/>
      <point x="95" y="631" type="line" smooth="yes"/>
      <point x="95" y="999"/>
      <point x="162" y="1270"/>
      <point x="268" y="1343" type="qcurve"/>
      <point x="283" y="1372"/>
      <point x="315" y="1431"/>
      <point x="315" y="1456" type="qcurve"/>
      <point x="479" y="1456" type="line"/>
      <point x="477" y="1351"/>
      <point x="366" y="1235"/>
      <point x="331" y="1199" type="qcurve"/>
      <point x="282" y="1150"/>
      <point x="251" y="996"/>
      <point x="232" y="801" type="qcurve"/>
      <point x="243" y="801" type="line"/>
      <point x="259" y="913"/>
      <point x="312" y="1042"/>
    </contour>
  </outline>
</glyph>
<glyph name="zhe" format="2">
  <advance width="690"/>
  <unicode hex="0436"/>
  <anchor x="345" y="1052" name="top"/>
  <anchor x="523" y="0" name="cy_descender"/>
  <outline>
    <contour>
      <point x="435" y="0" type="line"/>
      <point x="255" y="0" type="line"/>
      <point x="255" y="1052" type="line"/>
      <point x="435" y="1052" type="line"/>
    </contour>
    <contour>
      <point x="506" y="0" type="line"/>
      <point x="427" y="508" type="line"/>
      <point x="548" y="616" type="line"/>
      <point x="710" y="0" type="line"/>
    </contour>
    <contour>
      <point x="345" y="610" type="line"/>
      <point x="433" y="610" type="line"/>
      <point x="485" y="1052" type="line"/>
      <point x="691" y="1052" type="line"/>
      <point x="544" y="465" type="line"/>
      <point x="345" y="465" type="line"/>
    </contour>
    <contour>
      <point x="184" y="0" type="line"/>
      <point x="-20" y="0" type="line"/>
      <point x="142" y="616" type="line"/>
      <point x="263" y="508" type="line"/>
    </contour>
    <contour>
      <point x="345" y="610" type="line"/>
      <point x="345" y="465" type="line"/>
      <point x="146" y="465" type="line"/>
      <point x="-1" y="1052" type="line"/>
      <point x="205" y="1052" type="line"/>
      <point x="257" y="610" type="line"/>
    </contour>
  </outline>
</glyph>
<glyph name="che" format="2">
  <advance width="675"/>
  <unicode hex="0447"/>
  <guideline x="855" y="515" angle="90.0" identifier="GGEFes61Q6"/>
  <anchor x="434" y="0" name="cy_descender"/>
  <outline>
    <contour>
      <point x="311" y="773" type="line" smooth="yes"/>
      <point x="311" y="642"/>
      <point x="323" y="542"/>
      <point x="333" y="542" type="qcurve" smooth="yes"/>
      <point x="351" y="542"/>
      <point x="384" y="566"/>
      <point x="434" y="590" type="qcurve"/>
      <point x="434" y="444" type="line"/>
      <point x="420" y="425"/>
      <point x="367" y="396"/>
      <point x="298" y="396" type="qcurve" smooth="yes"/>
      <point x="212" y="396"/>
      <point x="125" y="583"/>
      <point x="125" y="773" type="qcurve" smooth="yes"/>
      <point x="125" y="1052" type="line"/>
      <point x="311" y="1052" type="line"/>
    </contour>
    <contour>
      <point x="527" y="1052" type="line"/>
      <point x="527" y="0" type="line"/>
      <point x="341" y="0" type="line"/>
      <point x="341" y="1052" type="line"/>
    </contour>
  </outline>
</glyph>
<glyph name="ecyr" format="2">
  <advance width="548"/>
  <unicode hex="044D"/>
  <guideline x="889" y="493" angle="90.0" identifier="9ss4WcbEUf"/>
  <anchor x="266" y="1052" name="top"/>
  <outline>
    <contour>
      <point x="463" y="510" type="line" smooth="yes"/>
      <point x="463" y="260"/>
      <point x="356" y="-30"/>
      <point x="264" y="-30" type="qcurve" smooth="yes"/>
      <point x="169" y="-30"/>
      <point x="69" y="197"/>
      <point x="69" y="337" type="qcurve" smooth="yes"/>
      <point x="69" y="342" type="line"/>
      <point x="249" y="342" type="line"/>
      <point x="249" y="337" type="line" smooth="yes"/>
      <point x="249" y="252"/>
      <point x="254" y="122"/>
      <point x="264" y="122" type="qcurve" smooth="yes"/>
      <point x="274" y="122"/>
      <point x="279" y="337"/>
      <point x="279" y="500" type="qcurve" smooth="yes"/>
      <point x="279" y="564" type="line" smooth="yes"/>
      <point x="279" y="717"/>
      <point x="276" y="930"/>
      <point x="266" y="930" type="qcurve" smooth="yes"/>
      <point x="258" y="930"/>
      <point x="253" y="797"/>
      <point x="253" y="715" type="qcurve" smooth="yes"/>
      <point x="253" y="710" type="line"/>
      <point x="73" y="710" type="line"/>
      <point x="73" y="715" type="line" smooth="yes"/>
      <point x="73" y="855"/>
      <point x="170" y="1082"/>
      <point x="268" y="1082" type="qcurve" smooth="yes"/>
      <point x="361" y="1082"/>
      <point x="463" y="791"/>
      <point x="463" y="542" type="qcurve" smooth="yes"/>
    </contour>
    <contour>
      <point x="369" y="610" type="line"/>
      <point x="369" y="465" type="line"/>
      <point x="158" y="465" type="line"/>
      <point x="158" y="610" type="line"/>
    </contour>
  </outline>
</glyph>
<glyph name="kaverticalstrokecyr" format="2">
  <advance width="780"/>
  <unicode hex="049D"/>
  <guideline x="547" y="651" angle="90.0" identifier="ATaXbxe4rK"/>
  <outline>
    <contour>
      <point x="529" y="852" type="line"/>
      <point x="529" y="200" type="line"/>
      <point x="364" y="200" type="line"/>
      <point x="364" y="852" type="line"/>
    </contour>
    <contour>
      <point x="334" y="1052" type="line"/>
      <point x="334" y="0" type="line"/>
      <point x="148" y="0" type="line"/>
      <point x="148" y="1052" type="line"/>
    </contour>
    <contour>
      <point x="600" y="0" type="line"/>
      <point x="529" y="465" type="line"/>
      <point x="644" y="591" type="line"/>
      <point x="805" y="0" type="line"/>
    </contour>
    <contour>
      <point x="447" y="610" type="line"/>
      <point x="529" y="610" type="line"/>
      <point x="579" y="1052" type="line"/>
      <point x="785" y="1052" type="line"/>
      <point x="616" y="465" type="line"/>
      <point x="447" y="465" type="line"/>
    </contour>
  </outline>
</glyph>
<glyph name="cheverticalstroke-cy" format="2">
  <advance width="871"/>
  <unicode hex="04B9"/>
  <outline>
    <contour>
      <point x="506.74242424242425" y="852" type="line"/>
      <point x="506.74242424242425" y="200" type="line"/>
      <point x="341.74242424242425" y="200" type="line"/>
      <point x="341.74242424242425" y="852" type="line"/>
    </contour>
    <contour>
      <point x="311.74242424242425" y="773" type="line" smooth="yes"/>
      <point x="311.74242424242425" y="642"/>
      <point x="316.74242424242425" y="542"/>
      <point x="408.74242424242425" y="542" type="qcurve" smooth="yes"/>
      <point x="497.74242424242425" y="542"/>
      <point x="571.7424242424242" y="568"/>
      <point x="609.7424242424242" y="590" type="qcurve"/>
      <point x="609.7424242424242" y="444" type="line"/>
      <point x="574.7424242424242" y="425"/>
      <point x="496.74242424242425" y="396"/>
      <point x="372.74242424242425" y="396" type="qcurve" smooth="yes"/>
      <point x="236.74242424242425" y="396"/>
      <point x="118.74242424242425" y="583"/>
      <point x="125.74242424242425" y="773" type="qcurve" smooth="yes"/>
      <point x="125.74242424242425" y="1052" type="line"/>
      <point x="311.74242424242425" y="1052" type="line"/>
    </contour>
    <contour>
      <point x="536.7424242424242" y="0" type="line"/>
      <point x="536.7424242424242" y="1052" type="line"/>
      <point x="722.7424242424242" y="1052" type="line"/>
      <point x="722.7424242424242" y="0" type="line"/>
    </contour>
  </outline>
</glyph>
<glyph name="brevecomb-stack" format="2">
  <anchor x="0.0" y="1450" name="top"/>
  <anchor x="0.0" y="1052" name="_top"/>
  <outline>
    <contour>
      <point x="0" y="1197" type="qcurve"/>
      <point x="-47" y="1197"/>
      <point x="-107" y="1351"/>
      <point x="-115" y="1465" type="qcurve"/>
      <point x="-15" y="1517" type="line"/>
      <point x="-14" y="1460"/>
      <point x="-11" y="1361"/>
      <point x="0" y="1361" type="qcurve"/>
      <point x="11" y="1361"/>
      <point x="14" y="1460"/>
      <point x="15" y="1517" type="qcurve"/>
      <point x="115" y="1465" type="line"/>
      <point x="107" y="1351"/>
      <point x="47" y="1197"/>
    </contour>
  </outline>
</glyph>
<glyph name="cy-descendercomb" format="2">
  <anchor x="0" y="0" name="_cy-descender"/>
  <outline>
    <contour>
      <point x="53" y="-270" type="line"/>
      <point x="53" y="0" type="line"/>
      <point x="0" y="0" type="line"/>
      <point x="0" y="145" type="line"/>
      <point x="221" y="145" type="line"/>
      <point x="221" y="-270" type="line"/>
    </contour>
  </outline>
</glyph>
<glyph name="dblgravecomb" format="2">
  <anchor x="0" y="1052" name="_top"/>
  <anchor x="0" y="1599" name="top"/>
  <outline>
    <contour>
      <point x="30" y="1217" type="line"/>
      <point x="-103" y="1509" type="line"/>
      <point x="45" y="1602" type="line"/>
      <point x="134" y="1270" type="line"/>
    </contour>
    <contour>
      <point x="-90" y="1217" type="line"/>
      <point x="-223" y="1509" type="line"/>
      <point x="-75" y="1602" type="line"/>
      <point x="14" y="1270" type="line"/>
    </contour>
  </outline>
</glyph>
<glyph name="dieresiscomb-stack" format="2">
  <anchor x="0.0" y="1052" name="_top"/>
  <anchor x="0.0" y="1425" name="top"/>
  <outline>
    <contour>
      <point x="-197" y="1300" type="qcurve" smooth="yes"/>
      <point x="-197" y="1334"/>
      <point x="-152" y="1383"/>
      <point x="-109" y="1383" type="qcurve" smooth="yes"/>
      <point x="-66" y="1383"/>
      <point x="-20" y="1334"/>
      <point x="-20" y="1300" type="qcurve" smooth="yes"/>
      <point x="-20" y="1264"/>
      <point x="-66" y="1215"/>
      <point x="-109" y="1215" type="qcurve" smooth="yes"/>
      <point x="-152" y="1215"/>
      <point x="-197" y="1264"/>
    </contour>
    <contour>
      <point x="19" y="1300" type="qcurve" smooth="yes"/>
      <point x="19" y="1334"/>
      <point x="64" y="1383"/>
      <point x="107" y="1383" type="qcurve" smooth="yes"/>
      <point x="150" y="1383"/>
      <point x="196" y="1334"/>
      <point x="196" y="1300" type="qcurve" smooth="yes"/>
      <point x="196" y="1264"/>
      <point x="150" y="1215"/>
      <point x="107" y="1215" type="qcurve" smooth="yes"/>
      <point x="64" y="1215"/>
      <point x="19" y="1264"/>
    </contour>
  </outline>
</glyph>
<glyph name="engtail" format="2">
  <advance width="539"/>
  <anchor x="339" y="0" name="_engtail"/>
  <outline>
    <contour>
      <point x="309" y="190" type="line"/>
      <point x="432" y="190" type="line"/>
      <point x="432" y="-195" type="line" smooth="yes"/>
      <point x="432" y="-295"/>
      <point x="333" y="-443"/>
      <point x="225" y="-443" type="qcurve" smooth="yes"/>
      <point x="166" y="-443"/>
      <point x="60" y="-381"/>
      <point x="27" y="-329" type="qcurve"/>
      <point x="93" y="-254" type="line"/>
      <point x="119" y="-295"/>
      <point x="153" y="-325"/>
      <point x="179" y="-325" type="qcurve" smooth="yes"/>
      <point x="206" y="-325"/>
      <point x="246" y="-265"/>
      <point x="246" y="-165" type="qcurve"/>
      <point x="246" y="-60"/>
      <point x="246" y="45"/>
      <point x="246" y="150" type="qcurve"/>
    </contour>
  </outline>
</glyph>
<glyph name="ghe.bgr" format="2">
  <advance width="560"/>
  <outline>
    <contour>
      <point x="479" y="310" type="line"/>
      <point x="479" y="305" type="line" smooth="yes"/>
      <point x="479" y="153"/>
      <point x="392" y="-30"/>
      <point x="279" y="-30" type="qcurve" smooth="yes"/>
      <point x="166" y="-30"/>
      <point x="81" y="150"/>
      <point x="81" y="290" type="qcurve" smooth="yes"/>
      <point x="81" y="430"/>
      <point x="177" y="566"/>
      <point x="234" y="625" type="qcurve"/>
      <point x="272" y="671"/>
      <point x="295" y="730"/>
      <point x="295" y="790" type="qcurve" smooth="yes"/>
      <point x="295" y="850"/>
      <point x="290" y="930"/>
      <point x="280" y="930" type="qcurve" smooth="yes"/>
      <point x="270" y="930"/>
      <point x="265" y="844"/>
      <point x="265" y="769" type="qcurve" smooth="yes"/>
      <point x="265" y="760" type="line"/>
      <point x="81" y="760" type="line"/>
      <point x="81" y="765" type="line" smooth="yes"/>
      <point x="81" y="910"/>
      <point x="197" y="1082"/>
      <point x="280" y="1082" type="qcurve" smooth="yes"/>
      <point x="363" y="1082"/>
      <point x="479" y="910"/>
      <point x="479" y="780" type="qcurve" smooth="yes"/>
      <point x="479" y="650"/>
      <point x="373" y="520"/>
      <point x="338" y="473" type="qcurve"/>
      <point x="280" y="413"/>
      <point x="264" y="350"/>
      <point x="264" y="280" type="qcurve" smooth="yes"/>
      <point x="264" y="210"/>
      <point x="269" y="122"/>
      <point x="279" y="122" type="qcurve" smooth="yes"/>
      <point x="289" y="122"/>
      <point x="294" y="214"/>
      <point x="294" y="305" type="qcurve" smooth="yes"/>
      <point x="294" y="310" type="line"/>
    </contour>
  </outline>
</glyph>
<glyph name="hard.bgr" format="2">
  <advance width="610"/>
  <outline>
    <contour>
      <point x="148" y="351" type="qcurve"/>
      <point x="148" y="907" type="line"/>
      <point x="30" y="907" type="line"/>
      <point x="30" y="1052" type="line"/>
      <point x="334" y="1052" type="line"/>
      <point x="334" y="351" type="line"/>
      <point x="334" y="252"/>
      <point x="339" y="123"/>
      <point x="349" y="123" type="qcurve" smooth="yes"/>
      <point x="359" y="123"/>
      <point x="364" y="252"/>
      <point x="364" y="351" type="qcurve" smooth="yes"/>
      <point x="364" y="447"/>
      <point x="359" y="573"/>
      <point x="349" y="573" type="qcurve" smooth="yes"/>
      <point x="234" y="573" type="line"/>
      <point x="234" y="718" type="line"/>
      <point x="349" y="718" type="line" smooth="yes"/>
      <point x="439" y="718"/>
      <point x="550" y="521"/>
      <point x="550" y="351" type="qcurve" smooth="yes"/>
      <point x="550" y="177"/>
      <point x="438" y="-30"/>
      <point x="349" y="-30" type="qcurve" smooth="yes"/>
      <point x="259" y="-30"/>
      <point x="148" y="177"/>
    </contour>
  </outline>
</glyph>
<glyph name="hookabovecomb-stack" format="2">
  <anchor x="0.0" y="1052" name="_top"/>
  <anchor x="0.0" y="1657" name="top"/>
  <anchor x="0" y="1052" name="_topright"/>
  <outline>
    <contour>
      <point x="-70" y="1220" type="line"/>
      <point x="-70" y="1261" type="line" smooth="yes"/>
      <point x="-70" y="1313"/>
      <point x="-24" y="1370"/>
      <point x="35" y="1383" type="qcurve"/>
      <point x="41" y="1395"/>
      <point x="42" y="1423"/>
      <point x="42" y="1433" type="qcurve" smooth="yes"/>
      <point x="42" y="1448"/>
      <point x="21" y="1459"/>
      <point x="4" y="1459" type="qcurve" smooth="yes"/>
      <point x="-26" y="1459"/>
      <point x="-86" y="1424"/>
      <point x="-86" y="1416" type="qcurve"/>
      <point x="-138" y="1542" type="line"/>
      <point x="-112" y="1567"/>
      <point x="-8" y="1602"/>
      <point x="37" y="1602" type="qcurve" smooth="yes"/>
      <point x="110" y="1602"/>
      <point x="205" y="1509"/>
      <point x="205" y="1442" type="qcurve" smooth="yes"/>
      <point x="205" y="1371"/>
      <point x="144" y="1267"/>
      <point x="51" y="1258" type="qcurve"/>
      <point x="51" y="1220" type="line"/>
    </contour>
  </outline>
</glyph>
<glyph name="horizontalbarlc" format="2">
  <advance width="356"/>
  <outline>
    <contour>
      <point x="171" y="656" type="line"/>
      <point x="29" y="656" type="line"/>
      <point x="40" y="802" type="line"/>
      <point x="211" y="802" type="line"/>
      <point x="356" y="802" type="line"/>
      <point x="356" y="656" type="line"/>
    </contour>
  </outline>
</glyph>
<glyph name="hungarumlautcomb-stack" format="2">
  <anchor x="0" y="1052" name="_top"/>
  <anchor x="0" y="1543" name="top"/>
  <outline>
    <contour>
      <point x="-192" y="1228" type="line"/>
      <point x="-136" y="1543" type="line"/>
      <point x="30" y="1510" type="line"/>
      <point x="-61" y="1217" type="line"/>
    </contour>
    <contour>
      <point x="18" y="1228" type="line"/>
      <point x="74" y="1543" type="line"/>
      <point x="240" y="1510" type="line"/>
      <point x="149" y="1217" type="line"/>
    </contour>
  </outline>
</glyph>
<glyph name="jdotless" format="2">
  <advance width="500"/>
  <anchor x="250" y="-436" name="bottom"/>
  <anchor x="250" y="1052" name="top"/>
  <outline>
    <contour>
      <point x="77" y="-410" type="qcurve"/>
      <point x="77" y="-260" type="line"/>
      <point x="83" y="-266"/>
      <point x="109" y="-280"/>
      <point x="120" y="-280" type="qcurve" smooth="yes"/>
      <point x="144" y="-280"/>
      <point x="157" y="-210"/>
      <point x="157" y="-130" type="qcurve" smooth="yes"/>
      <point x="157" y="1052" type="line"/>
      <point x="343" y="1052" type="line"/>
      <point x="343" y="-90" type="line" smooth="yes"/>
      <point x="343" y="-270"/>
      <point x="251" y="-436"/>
      <point x="147" y="-436" type="qcurve" smooth="yes"/>
      <point x="123" y="-436"/>
      <point x="82" y="-419"/>
    </contour>
  </outline>
</glyph>
<glyph name="ringcomb-stack" format="2">
  <anchor x="0" y="1052" name="_top"/>
  <anchor x="0" y="1426" name="top"/>
  <outline>
    <contour>
      <point x="-180" y="1393" type="qcurve" smooth="yes"/>
      <point x="-180" y="1471"/>
      <point x="-78" y="1570"/>
      <point x="0" y="1570" type="qcurve" smooth="yes"/>
      <point x="78" y="1570"/>
      <point x="180" y="1471"/>
      <point x="180" y="1393" type="qcurve" smooth="yes"/>
      <point x="180" y="1315"/>
      <point x="78" y="1215"/>
      <point x="0" y="1215" type="qcurve"/>
      <point x="-78" y="1215"/>
      <point x="-180" y="1315"/>
    </contour>
    <contour>
      <point x="-48" y="1393" type="qcurve" smooth="yes"/>
      <point x="-48" y="1371"/>
      <point x="-22" y="1344"/>
      <point x="0" y="1344" type="qcurve" smooth="yes"/>
      <point x="23" y="1344"/>
      <point x="48" y="1370"/>
      <point x="48" y="1393" type="qcurve" smooth="yes"/>
      <point x="48" y="1416"/>
      <point x="22" y="1443"/>
      <point x="0" y="1443" type="qcurve" smooth="yes"/>
      <point x="-23" y="1443"/>
      <point x="-48" y="1416"/>
    </contour>
  </outline>
</glyph>
<glyph name="zhe.bgr" format="2">
  <advance width="732"/>
  <outline>
    <contour>
      <point x="-16" y="0" type="line"/>
      <point x="224" y="672" type="line"/>
      <point x="340" y="544" type="line"/>
      <point x="202" y="0" type="line"/>
    </contour>
    <contour>
      <point x="273" y="0" type="line"/>
      <point x="273" y="1536" type="line"/>
      <point x="459" y="1536" type="line"/>
      <point x="459" y="0" type="line"/>
    </contour>
    <contour>
      <point x="530" y="0" type="line"/>
      <point x="391" y="544" type="line"/>
      <point x="507" y="672" type="line"/>
      <point x="748" y="0" type="line"/>
    </contour>
    <contour>
      <point x="12" y="1052" type="line"/>
      <point x="223" y="1052" type="line"/>
      <point x="358" y="474" type="line"/>
      <point x="358" y="258" type="line"/>
    </contour>
    <contour>
      <point x="719" y="1052" type="line"/>
      <point x="373" y="258" type="line"/>
      <point x="373" y="474" type="line"/>
      <point x="508" y="1052" type="line"/>
    </contour>
  </outline>
</glyph>
